<svg xmlns="http://www.w3.org/2000/svg" width="144.032" height="124.475" viewBox="0 0 144.032 124.475">
  <g id="logo" transform="translate(-51.5 -21)">
    <path id="Path_1" data-name="Path 1" d="M128.2,27H233.727V97.851H128.2Z" transform="translate(-55.423 -4.336)" fill="#83bb26"/>
    <path id="Path_2" data-name="Path 2" d="M231.056,95.18H122.2V21H231.056ZM125.529,91.851h102.2V24.329h-102.2Z" transform="translate(-51.087)" fill="#fff"/>
    <path id="Path_3" data-name="Path 3" d="M259.3,88.8h83.917v62.279H259.3Z" transform="translate(-150.154 -48.992)" fill="#0080c4"/>
    <path id="Path_4" data-name="Path 4" d="M340.546,148.408H253.3V82.8h87.246Zm-83.917-3.329h80.588V86.129H256.629Z" transform="translate(-145.818 -44.656)" fill="#fff"/>
    <path id="Path_5" data-name="Path 5" d="M57.5,146.3h89.687v61.474H57.5Z" transform="translate(-4.336 -90.54)" fill="#e8e9e4"/>
    <path id="Path_6" data-name="Path 6" d="M144.516,205.1H51.5V140.3h93.016Zm-89.687-3.329h86.358V143.629H54.829Z" transform="translate(0 -86.205)" fill="#fff"/>
    <g id="Group_1" data-name="Group 1" transform="translate(54.302 126.805)">
      <path id="Path_7" data-name="Path 7" d="M76.22,406.689v1.387a8.751,8.751,0,0,1-.472,1.775,5.182,5.182,0,0,1-2.608,2.3,8.756,8.756,0,0,1-1.387.222H62.6v8.766h-1V402.5h9.709a5.152,5.152,0,0,1,3.218,1.054,4.932,4.932,0,0,1,1.443,2.136Zm-6.159-3.218H62.626v7.878h9.1a3.531,3.531,0,0,0,2.913-1.609,4.152,4.152,0,0,0,.694-2.386,3.884,3.884,0,0,0-2.219-3.606,4.472,4.472,0,0,0-1.692-.305Z" transform="translate(-61.6 -402.472)" fill="#fff"/>
      <path id="Path_8" data-name="Path 8" d="M124.77,402.5a3.746,3.746,0,0,1,2.635,1.165,3.809,3.809,0,0,1,.777,2.025v.472a3.959,3.959,0,0,1-.943,2.275l-.721-.749a2.138,2.138,0,0,0,.638-1.775v-.083a2.28,2.28,0,0,0-1.165-2,3.2,3.2,0,0,0-1.332-.361h-.166a2.768,2.768,0,0,0-1.332.444,2.525,2.525,0,0,0-1,2.081,3.285,3.285,0,0,0,1.526,2.552c3.939,3.995,5.964,5.992,6.02,5.992v-2.164h.943v3.162l5.548,5.6h-1.3l-4.383-4.3a5.572,5.572,0,0,1-1.609,2.83,5.689,5.689,0,0,1-3.551,1.47h-.388a5.6,5.6,0,0,1-5.326-2.941A8.036,8.036,0,0,1,119,415.76v-.139a8.728,8.728,0,0,1,.388-2.413,5.659,5.659,0,0,1,2.719-2.941,5.254,5.254,0,0,1,1.3-.444l.055-.056v-.055c-1.3-1.193-1.942-1.97-1.942-2.247a4.8,4.8,0,0,1-.361-1.332,3.6,3.6,0,0,1,.915-2.552A3.638,3.638,0,0,1,124.77,402.5ZM120,415.067a4.832,4.832,0,0,0,1.137,3.468,4.421,4.421,0,0,0,1.47,1.165,6.008,6.008,0,0,0,2.247.444h.555a5.2,5.2,0,0,0,2.774-1.137,4.53,4.53,0,0,0,1.248-2.025l.222-1.054-5.326-5.3a5.21,5.21,0,0,0-2.719,1.082,5.3,5.3,0,0,0-1.443,2.386Z" transform="translate(-103.077 -402.472)" fill="#fff"/>
      <path id="Path_9" data-name="Path 9" d="M200.347,403.4h-6.8v17.643h-1V403.4H185.7v-1h14.647Z" transform="translate(-151.273 -402.4)" fill="#fff"/>
      <path id="Path_10" data-name="Path 10" d="M281.32,406.689v1.387a8.751,8.751,0,0,1-.472,1.775,5.182,5.182,0,0,1-2.608,2.3,8.756,8.756,0,0,1-1.387.222H267.7v8.766h-1V402.5h9.709a5.152,5.152,0,0,1,3.218,1.054,4.932,4.932,0,0,1,1.443,2.136Zm-6.159-3.218H267.7v7.878h9.1a3.531,3.531,0,0,0,2.913-1.609,4.152,4.152,0,0,0,.694-2.386,3.884,3.884,0,0,0-2.219-3.606,4.472,4.472,0,0,0-1.692-.305Z" transform="translate(-209.803 -402.472)" fill="#fff"/>
      <path id="Path_11" data-name="Path 11" d="M325,421.042h-1V402.4h1Z" transform="translate(-251.207 -402.4)" fill="#fff"/>
      <path id="Path_12" data-name="Path 12" d="M338.858,420.456a6.762,6.762,0,0,1,6.1,3.079V420.4h.943v13.649h-.943v-3.024a6.7,6.7,0,0,1-3.773,2.774,6.34,6.34,0,0,1-1.526.25h-.388a7.113,7.113,0,0,1-4.244-1.221,6.461,6.461,0,0,1-2.441-3.3,8.847,8.847,0,0,1-.388-2.33,7.94,7.94,0,0,1,.86-3.412,6.771,6.771,0,0,1,3.995-3.079A12.714,12.714,0,0,1,338.858,420.456Zm-5.548,6.63v.083l-.056.055.056.056v.166a5.334,5.334,0,0,0,2.913,4.91,6.26,6.26,0,0,0,2.719.694h.25a5.84,5.84,0,0,0,4.494-2.081,6.34,6.34,0,0,0,1.221-3.717,5.571,5.571,0,0,0-2.136-4.494,6.267,6.267,0,0,0-3.606-1.221h-.25a6.11,6.11,0,0,0-4.022,1.609A5.679,5.679,0,0,0,333.31,427.086Z" transform="translate(-257.132 -415.407)" fill="#fff"/>
      <path id="Path_13" data-name="Path 13" d="M390.7,420.4h8.35v1h-8.572a2.679,2.679,0,0,0-2.857,1.831,3.73,3.73,0,0,0-.166,1,2.762,2.762,0,0,0,1,2.081,2.794,2.794,0,0,0,1.387.61h6.02a3.81,3.81,0,0,1,2,.86,3.524,3.524,0,0,1,1.082,1.748l.083.555V431a3.432,3.432,0,0,1-2.83,3.024l-.943.055H386.4v-.943h8.628c1.581,0,2.58-.638,2.941-1.942l.083-.694a2.582,2.582,0,0,0-1.637-2.441l-.777-.166h-5.493a3.5,3.5,0,0,1-3.69-3.662,4.14,4.14,0,0,1,1.332-3A4.447,4.447,0,0,1,390.7,420.4Z" transform="translate(-296.297 -415.407)" fill="#fff"/>
      <path id="Path_14" data-name="Path 14" d="M436.7,421.4v-1h12.65v.86c0,.166-.305.527-.943,1.082,0,.055-1.692,1.859-5.1,5.382l-5.132,5.382h11.18v.943H436.7v-.832l11.235-11.845H436.7Z" transform="translate(-332.643 -415.407)" fill="#fff"/>
      <path id="Path_15" data-name="Path 15" d="M487.926,407.366h5.937v1h-5.937v5.576a7.945,7.945,0,0,0,.61,2.635,7.1,7.1,0,0,0,1.859,2.3,7.023,7.023,0,0,0,3.717,1.165h.139v1H494.2a7.4,7.4,0,0,1-5.465-2.3A7.745,7.745,0,0,1,486.9,413.5V402.4h1v4.966Z" transform="translate(-368.917 -402.4)" fill="#fff"/>
      <path id="Path_16" data-name="Path 16" d="M519.071,404.647H518.1V402.4h.971Zm0,16.395H518.1V407.393h.971Z" transform="translate(-391.462 -402.4)" fill="#fff"/>
      <path id="Path_17" data-name="Path 17" d="M527.227,415.094h.055a8.185,8.185,0,0,0,6.38-3,8.387,8.387,0,0,0,1.831-3.773l.139-.86h.943a9.882,9.882,0,0,1-.832,3.246,10.648,10.648,0,0,1-2.219,3.024c-.055,0-.194.111-.444.361-.277.222-.444.361-.527.361v.056a7.654,7.654,0,0,1,3.3,1.165A6.5,6.5,0,0,1,538.545,421v.083h-1.054v-.472a6.345,6.345,0,0,0-.832-2.524,5.676,5.676,0,0,0-5.077-2.635,17.6,17.6,0,0,0-2.635.472l-1.692.222H527.2v4.993h-1V402.5h1v12.594Z" transform="translate(-397.315 -402.472)" fill="#fff"/>
    </g>
  </g>
</svg>
